# xmcd
#
# Track frame offsets: 
#        150
#        25150
#        35702
#        47932
#        69765
#        93200
#        110580
#        129047
#        152720
#        160462
#        178292
#        188407
#
# Disc length: 2936 seconds
#
# Revision: 0
# Processed by: cddbd v1.5.2PL0 Copyright (c) Steve Scherf et al.
# Submitted via: ExactAudioCopy v0.99pb5
#
DISCID=960b760c
DTITLE=Colin Sapp - Portrait
DYEAR=1996
DGENRE=Rock
TTITLE0=Watchou Talk About
TTITLE1=Incomplete
TTITLE2=A New Taste
TTITLE3=Night Clouds
TTITLE4=Portrait
TTITLE5=8245
TTITLE6=Holy Grounds
TTITLE7=Another Disguise
TTITLE8=Hoe-Down
TTITLE9=Star
TTITLE10=Tell Me Tomorrow
TTITLE11=Finale
EXTD=
EXTT0=
EXTT1=
EXTT2=
EXTT3=
EXTT4=
EXTT5=
EXTT6=
EXTT7=
EXTT8=
EXTT9=
EXTT10=
EXTT11=
PLAYORDER=
